<svg xmlns="http://www.w3.org/2000/svg" width="640" height="640">
  <path fill="#343433" d="M526.6 334.98c0 114.03-92.57 206.61-206.6 206.61s-206.6-92.58-206.6-206.61c0-114.03 92.57-206.6 206.6-206.6s206.6 92.57 206.6 206.6z"/>
  <path fill="#79b63e" d="M229.31 190.99c0 51.68-41.95 93.64-93.63 93.64-51.68 0-93.64-41.96-93.64-93.64S84 97.36 135.68 97.36s93.63 41.95 93.63 93.63z"/>
  <path fill="#26873a" d="M416.59 97.36c0 51.67-41.96 93.63-93.64 93.63s-93.64-41.96-93.64-93.63c0-51.68 41.96-93.64 93.64-93.64s93.64 41.96 93.64 93.64z"/>
  <path fill="#4278ae" d="M603.86 184.33c0 51.68-41.96 93.64-93.64 93.64s-93.63-41.96-93.63-93.64 41.95-93.63 93.63-93.63c51.68 0 93.64 41.95 93.64 93.63z"/>
  <path fill="#a078aa" d="M637.5 380.76c0 51.68-41.95 93.63-93.63 93.63-51.68 0-93.64-41.95-93.64-93.63 0-51.68 41.96-93.64 93.64-93.64s93.63 41.96 93.63 93.64z"/>
  <path fill="#b85794" d="M516.05 541.59c0 51.67-41.96 93.63-93.64 93.63s-93.63-41.96-93.63-93.63c0-51.68 41.95-93.64 93.63-93.64 51.68 0 93.64 41.96 93.64 93.64z"/>
  <path fill="#e95358" d="M311.3 541.59c0 51.67-41.96 93.63-93.64 93.63s-93.63-41.96-93.63-93.63c0-51.68 41.95-93.64 93.63-93.64 51.68 0 93.64 41.96 93.64 93.64z"/>
  <path fill="#d3b016" d="M187.27 385.75c0 51.68-41.96 93.64-93.63 93.64C41.96 479.39 0 437.43 0 385.75s41.96-93.63 93.64-93.63c51.67 0 93.63 41.95 93.63 93.63z"/>
  <path fill="#fff" d="M99.636 189.958h1.343q1.973 0 2.913-.658.94-.658.94-2.068 0-1.396-.966-1.987-.954-.591-2.968-.591h-1.262v5.304zm0 3.384v7.533h-4.163v-19.632h5.72q4.002 0 5.922 1.464 1.92 1.45 1.92 4.418 0 1.732-.953 3.088-.953 1.343-2.7 2.108 4.432 6.62 5.775 8.554h-4.62l-4.686-7.533h-2.215zm19.833-4.848q-1.303 0-2.041.833-.739.819-.846 2.336h5.747q-.027-1.517-.793-2.336-.765-.833-2.067-.833zm.577 12.65q-3.626 0-5.667-2.001-2.04-2.001-2.04-5.667 0-3.773 1.88-5.828 1.893-2.067 5.223-2.067 3.182 0 4.955 1.812 1.772 1.813 1.772 5.009v1.987h-9.681q.067 1.746 1.034 2.726.966.98 2.712.98 1.356 0 2.565-.282 1.208-.282 2.524-.9v3.17q-1.074.537-2.296.792-1.222.268-2.981.268zm20.114-.269l-.55-1.92h-.215q-.658 1.047-1.866 1.624-1.209.564-2.753.564-2.645 0-3.988-1.41-1.343-1.423-1.343-4.082v-9.789h4.096v8.769q0 1.625.577 2.444.578.805 1.84.805 1.719 0 2.484-1.141.765-1.155.765-3.814v-7.063h4.096v15.013h-3.142zm17.886-4.458q0 2.31-1.61 3.518-1.599 1.208-4.795 1.208-1.638 0-2.793-.228-1.154-.215-2.161-.645v-3.383q1.141.537 2.564.9 1.437.362 2.525.362 2.229 0 2.229-1.29 0-.483-.296-.778-.295-.309-1.02-.685-.725-.39-1.934-.9-1.732-.725-2.551-1.342-.806-.618-1.182-1.41-.362-.806-.362-1.974 0-2 1.544-3.088 1.558-1.101 4.404-1.101 2.713 0 5.277 1.181l-1.235 2.954q-1.128-.483-2.108-.792-.98-.309-2-.309-1.814 0-1.814.98 0 .55.578.954.59.403 2.564 1.195 1.76.712 2.579 1.33.819.617 1.208 1.423.39.805.39 1.92zm9.44-7.923q-1.302 0-2.04.833-.74.819-.847 2.336h5.747q-.027-1.517-.792-2.336-.765-.833-2.068-.833zm.578 12.65q-3.626 0-5.667-2.001-2.04-2.001-2.04-5.667 0-3.773 1.879-5.828 1.893-2.067 5.223-2.067 3.183 0 4.955 1.812 1.773 1.813 1.773 5.009v1.987h-9.682q.067 1.746 1.034 2.726.967.98 2.713.98 1.356 0 2.564-.282 1.209-.282 2.525-.9v3.17q-1.075.537-2.296.792-1.222.268-2.981.268zm72.499 102.742h1.953q2.871 0 4.238-.957 1.367-.957 1.367-3.008 0-2.031-1.406-2.89-1.387-.86-4.316-.86h-1.836v7.715zm0 4.921v10.958h-6.055V291.21h8.32q5.82 0 8.614 2.129 2.793 2.11 2.793 6.426 0 2.52-1.387 4.492-1.387 1.953-3.926 3.066 6.446 9.629 8.399 12.442h-6.72l-6.815-10.957h-3.223zm28.847-7.05q-1.894 0-2.968 1.21-1.074 1.192-1.23 3.4h8.359q-.04-2.208-1.153-3.4-1.113-1.21-3.007-1.21zm.84 18.398q-5.273 0-8.242-2.91-2.969-2.91-2.969-8.242 0-5.488 2.735-8.477 2.754-3.008 7.597-3.008 4.63 0 7.207 2.637 2.579 2.637 2.579 7.285v2.89h-14.082q.097 2.54 1.503 3.966 1.407 1.426 3.946 1.426 1.972 0 3.73-.41t3.672-1.31v4.61q-1.562.781-3.34 1.153-1.777.39-4.336.39zm29.024-6.875q0 3.36-2.344 5.117-2.324 1.758-6.973 1.758-2.382 0-4.062-.332-1.68-.312-3.145-.937v-4.922q1.66.781 3.73 1.308 2.09.528 3.673.528 3.242 0 3.242-1.875 0-.703-.43-1.133-.43-.45-1.484-.996-1.055-.567-2.813-1.309-2.52-1.055-3.71-1.953-1.172-.898-1.72-2.05-.527-1.173-.527-2.872 0-2.91 2.246-4.492 2.266-1.602 6.407-1.602 3.945 0 7.675 1.72l-1.796 4.296q-1.641-.703-3.067-1.152-1.426-.45-2.91-.45-2.637 0-2.637 1.426 0 .801.84 1.387.86.586 3.73 1.738 2.56 1.035 3.75 1.934 1.192.898 1.758 2.07.567 1.172.567 2.793zm13.73-11.523q-1.894 0-2.968 1.21-1.075 1.192-1.23 3.4h8.358q-.039-2.208-1.152-3.4-1.113-1.21-3.008-1.21zm.84 18.398q-5.273 0-8.242-2.91-2.969-2.91-2.969-8.242 0-5.488 2.735-8.477 2.753-3.008 7.597-3.008 4.63 0 7.207 2.637 2.578 2.637 2.578 7.285v2.89h-14.082q.098 2.54 1.504 3.966 1.406 1.426 3.946 1.426 1.972 0 3.73-.41t3.672-1.31v4.61q-1.563.781-3.34 1.153-1.777.39-4.336.39zm27.656-.39l-1.152-2.97h-.156q-1.504 1.895-3.106 2.637-1.582.723-4.14.723-3.145 0-4.961-1.797-1.797-1.797-1.797-5.117 0-3.476 2.422-5.117 2.441-1.66 7.343-1.836l3.79-.117v-.957q0-3.32-3.399-3.32-2.617 0-6.152 1.581l-1.973-4.023q3.77-1.973 8.36-1.973 4.394 0 6.738 1.914 2.344 1.914 2.344 5.82v14.552h-4.16zm-1.757-10.118l-2.305.078q-2.598.079-3.867.938-1.27.86-1.27 2.617 0 2.52 2.89 2.52 2.071 0 3.302-1.192 1.25-1.191 1.25-3.164v-1.797zm24.218-12.129q1.211 0 2.012.176l-.45 5.586q-.722-.195-1.757-.195-2.852 0-4.453 1.465-1.582 1.465-1.582 4.101v11.114h-5.957v-21.836h4.512l.878 3.671h.293q1.016-1.835 2.735-2.949 1.738-1.133 3.77-1.133zm14.805 22.637q-10.195 0-10.195-11.191 0-5.567 2.773-8.496 2.774-2.95 7.95-2.95 3.788 0 6.796 1.485l-1.758 4.61q-1.406-.567-2.617-.919-1.21-.37-2.422-.37-4.648 0-4.648 6.6 0 6.407 4.648 6.407 1.72 0 3.184-.45 1.465-.468 2.93-1.445v5.098q-1.446.918-2.93 1.27-1.465.351-3.711.351zm31.836-.39h-5.957V307.01q0-4.727-3.516-4.727-2.5 0-3.613 1.7-1.113 1.698-1.113 5.507v10.274h-5.957v-30.391h5.957v6.191q0 .723-.137 3.399l-.137 1.758h.313q1.992-3.204 6.328-3.204 3.848 0 5.84 2.07 1.992 2.071 1.992 5.938v14.239zm-171.602 50V341.21h6.055v23.555h11.582v5H239zm21.934-27.481q0-2.91 3.242-2.91t3.242 2.91q0 1.387-.82 2.168-.8.762-2.422.762-3.242 0-3.242-2.93zm6.21 27.48h-5.956V347.93h5.957v21.836zm18.38-17.363h-5.156v17.364h-5.957V352.4h-3.282v-2.87l3.282-1.602v-1.602q0-3.73 1.835-5.45 1.836-1.718 5.88-1.718 3.085 0 5.488.918l-1.524 4.375q-1.797-.566-3.32-.566-1.27 0-1.836.761-.566.743-.566 1.914v1.368h5.156v4.472zm12.441-.644q-1.894 0-2.969 1.21-1.074 1.192-1.23 3.4h8.36q-.04-2.208-1.153-3.4-1.113-1.21-3.008-1.21zm.84 18.398q-5.273 0-8.242-2.91-2.969-2.91-2.969-8.242 0-5.488 2.734-8.477 2.754-3.008 7.598-3.008 4.63 0 7.207 2.637 2.578 2.637 2.578 7.285v2.89H293.63q.098 2.54 1.504 3.966 1.406 1.426 3.945 1.426 1.973 0 3.731-.41 1.758-.41 3.672-1.31v4.61q-1.563.781-3.34 1.153-1.777.39-4.336.39zm22.656 0q-10.195 0-10.195-11.191 0-5.567 2.773-8.496 2.774-2.95 7.95-2.95 3.789 0 6.797 1.485l-1.758 4.61q-1.407-.567-2.617-.919-1.211-.37-2.422-.37-4.649 0-4.649 6.6 0 6.407 4.649 6.407 1.718 0 3.183-.45 1.465-.468 2.93-1.445v5.098q-1.445.918-2.93 1.27-1.465.351-3.71.351zm8.555-22.226h6.523l4.122 12.285q.527 1.601.722 3.789h.117q.215-2.012.84-3.79l4.043-12.284h6.387l-9.238 24.629q-1.27 3.417-3.633 5.117-2.344 1.699-5.488 1.699-1.543 0-3.028-.332v-4.727q1.074.254 2.344.254 1.582 0 2.754-.976 1.191-.957 1.855-2.91l.352-1.075-8.672-21.68zm34.727 22.226q-10.196 0-10.196-11.191 0-5.567 2.774-8.496 2.773-2.95 7.949-2.95 3.789 0 6.797 1.485l-1.758 4.61q-1.406-.567-2.617-.919-1.211-.37-2.422-.37-4.649 0-4.649 6.6 0 6.407 4.649 6.407 1.719 0 3.183-.45 1.465-.468 2.93-1.445v5.098q-1.445.918-2.93 1.27-1.464.351-3.71.351zm17.637-.39h-5.958v-30.391h5.957v30.39zm15.273-18.008q-1.895 0-2.969 1.21-1.074 1.192-1.23 3.4h8.359q-.04-2.208-1.152-3.4-1.114-1.21-3.008-1.21zm.84 18.398q-5.274 0-8.243-2.91-2.968-2.91-2.968-8.242 0-5.488 2.734-8.477 2.754-3.008 7.598-3.008 4.629 0 7.207 2.637 2.578 2.637 2.578 7.285v2.89h-14.082q.097 2.54 1.504 3.966 1.406 1.426 3.945 1.426 1.973 0 3.73-.41 1.758-.41 3.672-1.31v4.61q-1.562.781-3.34 1.153-1.777.39-4.335.39zm-248.38 172.592q0 4.847-2.766 7.425-2.753 2.578-7.963 2.578h-5.56v-19.63h6.164q4.807 0 7.466 2.538t2.659 7.09zm-4.324.107q0-6.324-5.586-6.324h-2.216v12.783h1.786q6.016 0 6.016-6.459m7.895-8.997q0-2 2.23-2 2.228 0 2.228 2 0 .954-.564 1.49-.55.525-1.665.525-2.229 0-2.229-2.015zm4.27 18.893h-4.095v-15.012h4.095v15.012zm14.811-4.458q0 2.31-1.611 3.518-1.598 1.209-4.794 1.209-1.638 0-2.793-.228-1.155-.215-2.162-.645v-3.384q1.142.537 2.565.9 1.437.362 2.524.362 2.23 0 2.23-1.289 0-.483-.296-.778-.295-.31-1.02-.685-.726-.39-1.934-.9-1.732-.725-2.551-1.343-.806-.617-1.182-1.41-.363-.805-.363-1.973 0-2.001 1.545-3.089 1.557-1.101 4.404-1.101 2.712 0 5.277 1.182l-1.235 2.954q-1.128-.484-2.108-.792-.98-.31-2.001-.31-1.813 0-1.813.98 0 .551.577.954.591.403 2.565 1.195 1.76.712 2.578 1.33.82.617 1.209 1.423.39.806.39 1.92zm13.697 0q0 2.31-1.612 3.518-1.598 1.209-4.794 1.209-1.638 0-2.793-.228-1.154-.215-2.161-.645v-3.384q1.141.537 2.564.9 1.437.362 2.525.362 2.229 0 2.229-1.289 0-.483-.296-.778-.295-.31-1.02-.685-.725-.39-1.934-.9-1.732-.725-2.551-1.343-.806-.617-1.182-1.41-.362-.805-.362-1.973 0-2.001 1.544-3.089 1.558-1.101 4.404-1.101 2.713 0 5.277 1.182l-1.235 2.954q-1.128-.484-2.108-.792-.98-.31-2-.31-1.814 0-1.814.98 0 .551.578.954.59.403 2.564 1.195 1.76.712 2.579 1.33.819.617 1.208 1.423.39.806.39 1.92zm9.439-7.922q-1.302 0-2.04.832-.74.82-.847 2.337h5.747q-.027-1.518-.792-2.337-.765-.832-2.068-.832zm.578 12.649q-3.626 0-5.667-2-2.04-2.002-2.04-5.667 0-3.774 1.879-5.828 1.893-2.068 5.223-2.068 3.183 0 4.955 1.813 1.773 1.813 1.773 5.008v1.988h-9.682q.067 1.745 1.034 2.725.967.98 2.713.98 1.356 0 2.564-.281 1.209-.282 2.525-.9v3.169q-1.075.537-2.296.792-1.222.269-2.981.269zm22.921-.269h-4.096v-8.768q0-1.625-.55-2.43-.537-.82-1.706-.82-1.57 0-2.282 1.155t-.712 3.8v7.063h-4.095v-15.012h3.128l.55 1.92h.229q.604-1.034 1.746-1.611 1.141-.59 2.618-.59 3.37 0 4.565 2.201h.363q.604-1.047 1.773-1.625 1.181-.577 2.658-.577 2.551 0 3.854 1.316 1.316 1.302 1.316 4.19v9.788h-4.109v-8.768q0-1.625-.55-2.43-.538-.82-1.706-.82-1.504 0-2.256 1.075-.738 1.074-.738 3.41v7.533zm13.4-18.893q0-2 2.23-2 2.229 0 2.229 2 0 .954-.564 1.49-.55.525-1.665.525-2.23 0-2.23-2.015zm4.27 18.893h-4.095v-15.012h4.096v15.012zm18.195 0h-4.095v-8.768q0-1.625-.578-2.43-.577-.82-1.84-.82-1.718 0-2.483 1.155-.766 1.142-.766 3.8v7.063h-4.095v-15.012h3.128l.551 1.92h.228q.685-1.087 1.88-1.638 1.209-.564 2.74-.564 2.618 0 3.974 1.423 1.356 1.41 1.356 4.082v9.79zm13.777 0l-.792-2.04h-.108q-1.034 1.302-2.135 1.812-1.087.497-2.846.497-2.162 0-3.41-1.236-1.236-1.235-1.236-3.518 0-2.39 1.665-3.518 1.678-1.141 5.049-1.262l2.605-.08v-.658q0-2.283-2.337-2.283-1.8 0-4.23 1.087l-1.356-2.766q2.592-1.356 5.747-1.356 3.022 0 4.633 1.316 1.611 1.316 1.611 4.002v10.003h-2.86zm-1.208-6.955l-1.585.053q-1.786.054-2.659.645-.872.59-.872 1.8 0 1.731 1.987 1.731 1.423 0 2.27-.819.859-.819.859-2.175v-1.235zm14.596 3.961q1.074 0 2.578-.47v3.048q-1.531.685-3.76.685-2.457 0-3.585-1.236-1.115-1.248-1.115-3.732v-7.238h-1.96v-1.732l2.256-1.37 1.181-3.169h2.619v3.196h4.203v3.075h-4.203v7.238q0 .872.483 1.289.497.416 1.303.416zm11.87-9.386q-1.303 0-2.041.832-.739.82-.846 2.337h5.747q-.027-1.518-.792-2.337-.766-.832-2.068-.832zm.577 12.649q-3.625 0-5.666-2-2.041-2.002-2.041-5.667 0-3.774 1.88-5.828 1.893-2.068 5.223-2.068 3.182 0 4.955 1.813 1.772 1.813 1.772 5.008v1.988h-9.681q.067 1.745 1.034 2.725.966.98 2.712.98 1.356 0 2.565-.281 1.208-.282 2.524-.9v3.169q-1.074.537-2.296.792-1.222.269-2.981.269zM477.74 176.755q-2.35 0-3.64 1.773-1.289 1.759-1.289 4.914 0 6.567 4.928 6.567 2.068 0 5.009-1.034v3.49q-2.417 1.008-5.398 1.008-4.283 0-6.553-2.592-2.269-2.605-2.269-7.465 0-3.062 1.115-5.358 1.114-2.31 3.195-3.532 2.095-1.235 4.901-1.235 2.86 0 5.748 1.383l-1.343 3.384q-1.101-.524-2.216-.913-1.114-.39-2.189-.39zm17.281 1.155q.832 0 1.383.121l-.309 3.84q-.497-.134-1.208-.134-1.96 0-3.062 1.007-1.087 1.007-1.087 2.82v7.64h-4.096v-15.012h3.102l.604 2.525h.202q.698-1.263 1.88-2.028 1.194-.779 2.591-.779zm10.299 2.914q-1.302 0-2.041.833-.738.819-.846 2.336h5.747q-.027-1.517-.792-2.336-.765-.833-2.068-.833zm.577 12.649q-3.625 0-5.666-2-2.041-2.002-2.041-5.667 0-3.773 1.88-5.828 1.893-2.068 5.223-2.068 3.183 0 4.955 1.813 1.772 1.813 1.772 5.008v1.988h-9.68q.066 1.745 1.033 2.726.967.98 2.712.98 1.357 0 2.565-.282 1.209-.282 2.525-.9v3.17q-1.075.536-2.297.791-1.222.269-2.98.269zm19.014-.269l-.792-2.04h-.108q-1.033 1.302-2.135 1.812-1.087.497-2.846.497-2.162 0-3.41-1.235-1.236-1.236-1.236-3.518 0-2.39 1.665-3.519 1.678-1.14 5.049-1.262l2.605-.08v-.658q0-2.283-2.337-2.283-1.8 0-4.23 1.088l-1.356-2.766q2.592-1.357 5.747-1.357 3.022 0 4.633 1.316 1.611 1.316 1.611 4.002v10.003h-2.86zm-1.208-6.955l-1.585.054q-1.786.053-2.659.644-.872.59-.872 1.8 0 1.732 1.987 1.732 1.423 0 2.27-.82.859-.819.859-2.175v-1.235zm14.596 3.961q1.074 0 2.578-.47v3.048q-1.531.685-3.76.685-2.457 0-3.585-1.235-1.115-1.25-1.115-3.733v-7.238h-1.96v-1.732l2.256-1.37 1.181-3.169h2.619v3.196h4.203v3.075h-4.203v7.238q0 .872.483 1.289.497.416 1.303.416zm11.87-9.386q-1.303 0-2.041.833-.739.819-.846 2.336h5.747q-.027-1.517-.792-2.336-.766-.833-2.068-.833zm.577 12.649q-3.625 0-5.666-2-2.041-2.002-2.041-5.667 0-3.773 1.88-5.828 1.893-2.068 5.223-2.068 3.182 0 4.955 1.813 1.772 1.813 1.772 5.008v1.988h-9.681q.067 1.745 1.034 2.726.966.98 2.712.98 1.356 0 2.565-.282 1.208-.282 2.524-.9v3.17q-1.074.536-2.296.791-1.222.269-2.98.269zM300.023 93.644h1.37q1.92 0 2.873-.752.953-.765.953-2.216 0-1.463-.805-2.161-.793-.699-2.498-.699h-1.893v5.828zm9.4-3.115q0 3.169-1.988 4.847-1.974 1.679-5.626 1.679h-1.786v6.982h-4.163V84.406h6.27q3.573 0 5.426 1.544 1.866 1.53 1.866 4.579zm7.451 13.508h-4.095V83.143h4.095v20.894zm13.818 0l-.793-2.041h-.107q-1.034 1.303-2.135 1.813-1.088.497-2.847.497-2.162 0-3.41-1.236-1.236-1.235-1.236-3.518 0-2.39 1.665-3.518 1.679-1.141 5.05-1.262l2.604-.08v-.659q0-2.282-2.336-2.282-1.8 0-4.23 1.087l-1.356-2.766q2.591-1.356 5.747-1.356 3.021 0 4.632 1.316 1.612 1.316 1.612 4.001v10.004h-2.86zm-1.209-6.956l-1.584.054q-1.786.054-2.659.645-.873.59-.873 1.799 0 1.732 1.987 1.732 1.424 0 2.27-.819.86-.819.86-2.175V97.08zm22.129 6.956h-4.095v-8.768q0-1.625-.578-2.43-.577-.82-1.84-.82-1.718 0-2.484 1.155-.765 1.141-.765 3.8v7.063h-4.095V89.025h3.128l.55 1.92h.23q.684-1.088 1.879-1.638 1.208-.564 2.74-.564 2.618 0 3.974 1.423 1.356 1.41 1.356 4.082v9.789zm150.715 276.285h1.37q1.92 0 2.873-.752.954-.766.954-2.216 0-1.463-.806-2.162-.792-.698-2.498-.698h-1.893v5.828zm9.4-3.115q0 3.169-1.988 4.847-1.974 1.678-5.626 1.678h-1.786v6.983h-4.162v-19.631h6.27q3.572 0 5.425 1.544 1.867 1.53 1.867 4.579zm11.735-1.787q.833 0 1.383.122l-.308 3.84q-.497-.134-1.209-.134-1.96 0-3.061 1.007-1.088 1.007-1.088 2.82v7.64h-4.095v-15.012h3.101l.605 2.524h.201q.698-1.262 1.88-2.027 1.195-.78 2.591-.78zm7.345 7.762q0 2.229.725 3.37.739 1.142 2.39 1.142 1.639 0 2.35-1.128.726-1.142.726-3.384 0-2.23-.726-3.344-.725-1.114-2.376-1.114-1.638 0-2.364 1.114-.725 1.102-.725 3.344zm10.38 0q0 3.666-1.934 5.734-1.933 2.067-5.384 2.067-2.162 0-3.814-.94-1.651-.953-2.537-2.725-.887-1.773-.887-4.136 0-3.68 1.92-5.72 1.92-2.041 5.398-2.041 2.162 0 3.814.94 1.652.94 2.538 2.699.886 1.759.886 4.122zm9.48 7.801q-7.01 0-7.01-7.694 0-3.827 1.907-5.84 1.907-2.028 5.466-2.028 2.605 0 4.672 1.02l-1.208 3.17q-.967-.39-1.8-.632-.832-.255-1.664-.255-3.196 0-3.196 4.539 0 4.404 3.196 4.404 1.181 0 2.188-.309 1.007-.322 2.014-.994v3.505q-.993.631-2.014.873-1.007.241-2.551.241zm14.247-12.648q-1.303 0-2.041.832-.739.82-.846 2.336h5.747q-.027-1.517-.792-2.336-.766-.832-2.068-.832zm.577 12.648q-3.625 0-5.666-2-2.041-2.001-2.041-5.667 0-3.773 1.88-5.827 1.893-2.068 5.223-2.068 3.182 0 4.955 1.812 1.772 1.813 1.772 5.009v1.987h-9.681q.067 1.746 1.034 2.726.967.98 2.712.98 1.356 0 2.565-.282 1.208-.282 2.524-.9v3.17q-1.074.537-2.296.792-1.222.268-2.98.268zm19.954-4.726q0 2.31-1.612 3.518-1.597 1.208-4.793 1.208-1.638 0-2.793-.228-1.155-.215-2.162-.644v-3.384q1.141.537 2.565.9 1.436.362 2.524.362 2.23 0 2.23-1.289 0-.483-.296-.779-.296-.309-1.02-.685-.726-.389-1.934-.9-1.733-.724-2.552-1.342-.805-.618-1.181-1.41-.363-.806-.363-1.974 0-2 1.544-3.088 1.558-1.101 4.405-1.101 2.712 0 5.277 1.181l-1.236 2.954q-1.128-.483-2.108-.792-.98-.309-2-.309-1.813 0-1.813.98 0 .551.577.954.59.403 2.565 1.195 1.759.712 2.578 1.33.819.617 1.208 1.423.39.805.39 1.92zm13.696 0q0 2.31-1.611 3.518-1.598 1.208-4.794 1.208-1.638 0-2.793-.228-1.155-.215-2.162-.644v-3.384q1.142.537 2.565.9 1.437.362 2.524.362 2.23 0 2.23-1.289 0-.483-.296-.779-.295-.309-1.02-.685-.726-.389-1.934-.9-1.732-.724-2.551-1.342-.806-.618-1.182-1.41-.363-.806-.363-1.974 0-2 1.545-3.088 1.557-1.101 4.404-1.101 2.712 0 5.277 1.181l-1.235 2.954q-1.128-.483-2.109-.792-.98-.309-2-.309-1.813 0-1.813.98 0 .551.577.954.591.403 2.565 1.195 1.76.712 2.578 1.33.82.617 1.209 1.423.39.805.39 1.92zM384.581 552.75l-1.423-4.673H376l-1.424 4.673h-4.484l6.928-19.712h5.09l6.955 19.712h-4.485zm-2.417-8.164q-1.974-6.351-2.229-7.184-.242-.832-.35-1.316-.442 1.72-2.537 8.5h5.116zm22.894 8.164h-4.095v-8.768q0-1.625-.578-2.43-.577-.82-1.84-.82-1.718 0-2.483 1.155-.766 1.142-.766 3.8v7.063h-4.095v-15.012h3.129l.55 1.92h.228q.685-1.088 1.88-1.638 1.209-.564 2.74-.564 2.618 0 3.974 1.423 1.356 1.41 1.356 4.082v9.79zm13.777 0l-.792-2.04h-.107q-1.034 1.302-2.135 1.812-1.088.497-2.847.497-2.162 0-3.41-1.236-1.236-1.235-1.236-3.518 0-2.39 1.665-3.518 1.678-1.141 5.049-1.262l2.605-.08v-.659q0-2.282-2.337-2.282-1.8 0-4.23 1.087l-1.356-2.766q2.592-1.356 5.747-1.356 3.022 0 4.633 1.316 1.611 1.316 1.611 4.001v10.004h-2.86zm-1.208-6.955l-1.585.053q-1.786.054-2.658.645-.873.59-.873 1.8 0 1.731 1.987 1.731 1.423 0 2.27-.819.859-.819.859-2.175v-1.235zm12.367 6.955h-4.096v-20.893h4.096v20.893zm2.135-15.012h4.484l2.834 8.446q.362 1.101.497 2.605h.08q.148-1.383.578-2.605l2.78-8.446h4.39l-6.351 16.932q-.873 2.35-2.498 3.518-1.611 1.169-3.773 1.169-1.06 0-2.081-.229v-3.25q.738.175 1.61.175 1.089 0 1.894-.671.82-.658 1.276-2l.242-.74-5.962-14.904zm28.225 15.012h-11.857v-2.417l6.956-9.466h-6.54v-3.129h11.199v2.659l-6.768 9.225h7.01v3.128zm9.198-12.38q-1.303 0-2.041.832-.739.82-.846 2.337h5.747q-.027-1.518-.792-2.337-.766-.832-2.068-.832zm.577 12.649q-3.625 0-5.666-2.001-2.041-2-2.041-5.667 0-3.773 1.88-5.827 1.893-2.068 5.223-2.068 3.182 0 4.955 1.813 1.772 1.812 1.772 5.008v1.988h-9.681q.067 1.745 1.034 2.725.966.98 2.712.98 1.356 0 2.565-.281 1.208-.282 2.524-.9v3.169q-1.074.537-2.296.792-1.222.269-2.98.269zM41.15 387.033h1.37q1.92 0 2.873-.752.953-.765.953-2.215 0-1.464-.805-2.162-.793-.698-2.498-.698H41.15v5.827zm9.4-3.115q0 3.17-1.988 4.848-1.974 1.678-5.626 1.678H41.15v6.982h-4.163v-19.63h6.27q3.573 0 5.426 1.543 1.866 1.531 1.866 4.58zm11.735-1.786q.832 0 1.383.121l-.309 3.84q-.497-.134-1.208-.134-1.96 0-3.062 1.007-1.087 1.007-1.087 2.82v7.64h-4.096v-15.012h3.102l.604 2.525h.202q.698-1.263 1.88-2.028 1.194-.779 2.591-.779zm10.299 2.914q-1.302 0-2.041.833-.739.819-.846 2.336h5.747q-.027-1.517-.792-2.336-.765-.833-2.068-.833zm.577 12.649q-3.625 0-5.666-2-2.041-2.001-2.041-5.667 0-3.773 1.88-5.828 1.893-2.068 5.223-2.068 3.183 0 4.955 1.813 1.772 1.813 1.772 5.009v1.987h-9.68q.066 1.745 1.033 2.726.967.98 2.712.98 1.357 0 2.565-.282 1.209-.282 2.525-.9v3.17q-1.075.536-2.297.791-1.222.269-2.98.269zm19.954-4.727q0 2.31-1.611 3.518-1.598 1.209-4.794 1.209-1.638 0-2.793-.228-1.155-.215-2.162-.645v-3.384q1.142.537 2.565.9 1.437.363 2.524.363 2.23 0 2.23-1.29 0-.483-.296-.778-.296-.31-1.02-.685-.726-.39-1.934-.9-1.732-.725-2.551-1.343-.806-.617-1.182-1.41-.363-.805-.363-1.973 0-2.001 1.545-3.089 1.557-1.1 4.404-1.1 2.712 0 5.277 1.18l-1.235 2.955q-1.128-.483-2.109-.792-.98-.31-2-.31-1.813 0-1.813.981 0 .55.577.953.591.403 2.565 1.196 1.76.711 2.578 1.329.82.618 1.209 1.423.389.806.389 1.92zm9.44-7.922q-1.303 0-2.041.833-.739.819-.846 2.336h5.747q-.027-1.517-.792-2.336-.766-.833-2.068-.833zm.577 12.649q-3.625 0-5.666-2-2.041-2.001-2.041-5.667 0-3.773 1.88-5.828 1.893-2.068 5.223-2.068 3.182 0 4.955 1.813 1.772 1.813 1.772 5.009v1.987h-9.681q.067 1.745 1.034 2.726.967.98 2.712.98 1.356 0 2.565-.282 1.208-.282 2.524-.9v3.17q-1.074.536-2.296.791-1.222.269-2.98.269zm17.859-15.563q.833 0 1.383.121l-.309 3.84q-.497-.134-1.208-.134-1.96 0-3.062 1.007-1.087 1.007-1.087 2.82v7.64h-4.096v-15.012h3.102l.604 2.525h.202q.698-1.263 1.88-2.028 1.195-.779 2.591-.779zm7.654 15.294l-5.72-15.012h4.283l2.9 8.554q.484 1.624.605 3.075h.08q.067-1.29.605-3.075l2.887-8.554h4.283l-5.72 15.012h-4.203zm18.275-12.38q-1.303 0-2.041.833-.739.819-.846 2.336h5.747q-.027-1.517-.792-2.336-.766-.833-2.068-.833zm.577 12.649q-3.625 0-5.666-2-2.041-2.001-2.041-5.667 0-3.773 1.88-5.828 1.893-2.068 5.223-2.068 3.182 0 4.955 1.813 1.772 1.813 1.772 5.009v1.987h-9.681q.067 1.745 1.034 2.726.967.98 2.712.98 1.357 0 2.565-.282 1.209-.282 2.524-.9v3.17q-1.074.536-2.296.791-1.222.269-2.98.269z"/>
</svg>
